<?xml version="1.0" encoding="UTF-8"?>
<svg width="16px" height="16px" viewBox="0 0 16 16" version="1.1" xmlns="http://www.w3.org/2000/svg" xmlns:xlink="http://www.w3.org/1999/xlink">
    <!-- Generator: Sketch 64 (93537) - https://sketch.com -->
    <title>查询</title>
    <desc>Created with Sketch.</desc>
    <g id="控件" stroke="none" stroke-width="1" fill="none" fill-rule="evenodd">
        <g id="查询">
            <g id="形状结合-2" transform="translate(2.000000, 2.000000)" fill="#44D7B6" fill-rule="nonzero">
                <path d="M5.78511163,5.2846616e-13 C8.9785709,5.2846616e-13 11.5702233,2.6 11.5682819,5.80809595 C11.5682819,7.25817091 11.0402449,8.58350825 10.1647129,9.60089955 L10.1647129,9.60089955 L12.8864332,12.3334333 C13.0378556,12.4854573 13.0378556,12.810866 12.8864332,12.96289 C12.810722,13.038902 12.6775918,13.0778825 12.5785849,13.0778825 C12.4795779,13.0778825 12.380571,13.038902 12.3048598,12.96289 L12.3048598,12.96289 L9.49546595,10.2684047 C8.47433551,11.1766506 7.2566266,11.6161919 5.78511163,11.6161919 C2.58971104,11.6161919 1.59472435e-11,9.0161919 1.59472435e-11,5.80809595 C1.59472435e-11,2.6 2.58971104,5.2846616e-13 5.78511163,5.2846616e-13 Z M5.82393788,1.21814093 C5.20204064,1.21814093 4.598014,1.34193804 4.02972859,1.58235562 C3.48110085,1.81559656 2.98787201,2.14931052 2.56433854,2.57452669 C2.14080507,2.99974286 1.80841172,3.49493131 1.57609378,4.04573876 C1.33484054,4.61628198 1.21332039,5.22270841 1.21332039,5.84707646 C1.21332039,6.47144451 1.3366276,7.07787095 1.57609378,7.64841417 C1.80841172,8.19922161 2.14080507,8.69441006 2.56433854,9.11962623 C2.98787201,9.5448424 3.48110085,9.87855636 4.02972859,10.1117973 C4.598014,10.354009 5.20204064,10.476012 5.82393788,10.476012 C6.44583512,10.476012 7.04986175,10.3522149 7.61814716,10.1117973 C8.1667749,9.87855636 8.66000375,9.5448424 9.08353722,9.11962623 C9.50707068,8.69441006 9.83946404,8.19922161 10.071782,7.64841417 C10.3130352,7.07787095 10.4345554,6.47144451 10.4345554,5.84707646 C10.4345554,5.22270841 10.3112482,4.61628198 10.071782,4.04573876 C9.83946404,3.49493131 9.50707068,2.99974286 9.08353722,2.57452669 C8.66000375,2.14931052 8.1667749,1.81559656 7.61814716,1.58235562 C7.04986175,1.34014388 6.44583512,1.21814093 5.82393788,1.21814093 Z" id="形状结合"></path>
            </g>
            <g id="矩形-2">
                <rect id="矩形" x="0" y="0" width="16" height="16"></rect>
            </g>
        </g>
    </g>
</svg>