<?xml version="1.0" encoding="UTF-8"?>
<svg width="16px" height="16px" viewBox="0 0 16 16" version="1.1" xmlns="http://www.w3.org/2000/svg" xmlns:xlink="http://www.w3.org/1999/xlink">
    <!-- Generator: Sketch 64 (93537) - https://sketch.com -->
    <title>下载</title>
    <desc>Created with Sketch.</desc>
    <g id="控件" stroke="none" stroke-width="1" fill="none" fill-rule="evenodd">
        <g id="下载">
            <g id="编组-18" fill="#44D7B6" fill-rule="nonzero" opacity="0">
                <rect id="矩形" x="0" y="0" width="16" height="16"></rect>
                <rect id="矩形" x="0" y="0" width="16" height="16"></rect>
            </g>
            <path d="M12.9,15 L3.1,15 C1.94020202,15 1,14.0020172 1,12.7709429 L1,8.31282877 C1,7.90247069 1.31340068,7.56980974 1.7,7.56980974 C2.08659933,7.56980974 2.40000001,7.90247069 2.40000001,8.31282877 L2.40000001,12.7709429 C2.40000001,13.181301 2.71340068,13.5139619 3.1,13.513962 L12.9,13.513962 C13.2865993,13.5139619 13.6,13.181301 13.6,12.7709429 L13.6,8.31282877 C13.6,7.90247071 13.9134007,7.56980974 14.3,7.56980974 C14.6865993,7.56980974 15,7.90247071 15,8.31282877 L15,12.7709429 C15,14.0020172 14.059798,15 12.9,15 Z M8.7,7.99555964 L8.7,1.74301903 C8.7,1.33266095 8.38659933,1 8,1 C7.61340067,1 7.3,1.33266095 7.3,1.74301903 L7.3,7.99555964 L5.0012,5.55548517 C4.8227637,5.36608293 4.56268713,5.29211294 4.31893862,5.36143897 C4.0751901,5.430765 3.88480084,5.63285478 3.81948862,5.89158304 C3.7541764,6.15031131 3.82386371,6.42637108 4.00230001,6.61577331 L7.5023,10.3308685 C7.77964883,10.6232882 8.22735117,10.6232882 8.50470001,10.3308685 L12.0047,6.61577331 C12.2671485,6.31866226 12.2593369,5.85385753 11.9870719,5.56687148 C11.714807,5.27988543 11.2768695,5.27483976 10.9988,5.55548517 L8.7,7.99555964 Z" id="形状" fill="#44D7B6" fill-rule="nonzero"></path>
            <g id="矩形-2">
                <rect id="矩形" x="0" y="0" width="16" height="16"></rect>
            </g>
        </g>
    </g>
</svg>