<?xml version="1.0" encoding="UTF-8"?>
<svg width="16px" height="16px" viewBox="0 0 16 16" version="1.1" xmlns="http://www.w3.org/2000/svg" xmlns:xlink="http://www.w3.org/1999/xlink">
    <!-- Generator: Sketch 64 (93537) - https://sketch.com -->
    <title>过滤</title>
    <desc>Created with Sketch.</desc>
    <g id="控件" stroke="none" stroke-width="1" fill="none" fill-rule="evenodd">
        <g id="过滤">
            <g id="编组-18" fill="#44D7B6" fill-rule="nonzero">
                <rect id="矩形" opacity="0" x="0" y="0" width="16" height="16"></rect>
                <rect id="矩形" opacity="0" x="0" y="0" width="16" height="16"></rect>
                <path d="M9.17028125,15.2555312 C9.06070312,15.2555312 8.95292187,15.2198906 8.86378125,15.1494375 L6.06882812,12.9264687 C5.95210937,12.8338281 5.88440625,12.6912812 5.88440625,12.541625 L5.88440625,7.82746875 C5.88440625,7.81148437 5.87725,7.7971875 5.86657812,7.78654687 L1.43215625,3.350375 C1.41434375,3.3325625 1.3974375,3.31379687 1.38314062,3.29426562 C1.13278125,3.03142187 1,2.70003125 1,2.34979687 C1,1.60585937 1.60585937,1 2.34890625,1 L13.3435,1 C14.0865937,1 14.6924219,1.60585937 14.6924219,2.34979687 C14.6924219,2.69640625 14.5606406,3.02610937 14.3218281,3.27732812 C14.3129219,3.28984375 14.29425,3.31204687 14.2817344,3.32275 L9.67898437,7.92729687 C9.66832812,7.93801562 9.66117187,7.9531875 9.66117187,7.96923437 L9.66117187,14.7655156 C9.66117187,14.9544219 9.553375,15.1255312 9.38232812,15.2074219 C9.31457812,15.2394844 9.24154687,15.2555312 9.17025,15.2555312 L9.17025,15.2555312 L9.17028125,15.2555312 Z M6.86626562,12.3046094 L8.67935937,13.7462656 L8.67935937,7.96828125 C8.67935937,7.6894375 8.78715625,7.4293125 8.98226562,7.232375 L13.5707656,2.643875 C13.5850156,2.62692187 13.5984219,2.61267187 13.6127031,2.59751562 C13.6732812,2.5333125 13.70975,2.44340625 13.70975,2.3498125 C13.70975,2.14757812 13.5440312,1.98278125 13.3427031,1.98278125 L2.34901562,1.98278125 C2.1468125,1.98278125 1.98196875,2.1485 1.98196875,2.3498125 C1.98196875,2.44429687 2.01854687,2.53520312 2.08442187,2.602875 C2.1084375,2.62782812 2.129875,2.6545625 2.15035937,2.67948437 L6.56157812,7.0915625 C6.75489062,7.284875 6.86632812,7.55304687 6.86632812,7.82746875 L6.86632812,12.3046406 L6.86626562,12.3046094 Z" id="形状"></path>
            </g>
            <g id="矩形-2">
                <rect id="矩形" x="0" y="0" width="16" height="16"></rect>
            </g>
        </g>
    </g>
</svg>